<?xml version="1.0" encoding="UTF-8" standalone="no"?>
<!-- Created with Inkscape (http://www.inkscape.org/) -->

<svg
   width="603"
   height="406"
   viewBox="0 0 159.54375 107.42083"
   version="1.1"
   id="svg1"
   xml:space="preserve"
   xmlns="http://www.w3.org/2000/svg"
   xmlns:svg="http://www.w3.org/2000/svg"><defs
     id="defs1" /><g
     id="layer2"
     style="display:inline"><path
       class="st0"
       d="M 0,99.879466 142.61041,0.1315485 139.43541,107.42083 c 0,0 -15.87499,-18.653864 -48.94791,-18.653864 -33.072917,0 -69.320833,5.582708 -90.4875,11.1125 z"
       id="path1"
       style="display:inline;opacity:1;stroke-width:0.264583" /><path
       d="M 17.538852,14.891372 V 32.540844 H 13.516211 L 11.12879,24.517366 v 8.023478 H 7.2914746 V 14.891372 H 11.12879 l 2.572746,7.947168 v -7.947168 z m 10.958342,0 2.627253,17.649472 h -4.698531 l -0.228931,-3.172326 h -1.646121 l -0.272537,3.172326 h -4.753039 l 2.332914,-17.649472 z m -2.431027,11.348425 q -0.348846,-2.997903 -0.697693,-7.402095 -0.697694,5.05828 -0.872118,7.402095 z M 42.824089,20.23309 h -4.262473 v -1.308176 q 0,-0.915723 -0.163521,-1.166457 -0.163522,-0.250733 -0.545074,-0.250733 -0.414255,0 -0.632285,0.337945 -0.207128,0.337945 -0.207128,1.024738 0,0.883018 0.239833,1.329978 0.22893,0.446961 1.297274,1.079246 3.063312,1.820544 3.859119,2.987001 0.795807,1.166457 0.795807,3.761005 0,1.885954 -0.44696,2.779874 -0.436059,0.89392 -1.700629,1.504402 -1.26457,0.599581 -2.943396,0.599581 -1.842347,0 -3.150523,-0.697694 Q 33.666859,31.516106 33.263504,30.436861 32.86015,29.357616 32.86015,27.37355 v -1.155556 h 4.262473 v 2.147589 q 0,0.992033 0.174424,1.275471 0.185324,0.283438 0.643186,0.283438 0.457862,0 0.675891,-0.359748 0.228931,-0.359748 0.228931,-1.068344 0,-1.558909 -0.425158,-2.038574 -0.436058,-0.479664 -2.147588,-1.602515 -1.71153,-1.133752 -2.267505,-1.646121 -0.555975,-0.512369 -0.926624,-1.417191 -0.359749,-0.904821 -0.359749,-2.31111 0,-2.027673 0.512369,-2.965199 0.52327,-0.937526 1.678826,-1.460796 1.155555,-0.534172 2.790775,-0.534172 1.78784,0 3.041509,0.577778 1.264569,0.577777 1.667924,1.460796 0.414255,0.872117 0.414255,2.9761 z m 10.93654,-5.341718 2.627253,17.649472 H 51.68935 l -0.228931,-3.172326 h -1.646121 l -0.272536,3.172326 h -4.753039 l 2.332913,-17.649472 z m -2.431027,11.348425 q -0.348847,-2.997903 -0.697694,-7.402095 -0.697694,5.05828 -0.872117,7.402095 z"
       id="text34"
       style="font-size:22.3262px;font-family:Impact;-inkscape-font-specification:'Impact, Normal';letter-spacing:1.19063px;fill:#0a3d90;stroke-width:0"
       transform="scale(1.1817198,0.84622426)"
       aria-label="NASA" /><g
       id="layer4"
       style="display:inline;opacity:1"><path
         style="font-size:58.3743px;font-family:Impact;-inkscape-font-specification:'Impact, Normal';letter-spacing:-1.85208px;opacity:1;fill:#bebbcf;fill-opacity:1;stroke:#0a3d90;stroke-width:0.6;stroke-opacity:1"
         d="M 159.23926,31.242054 V 76.707801 H 147.05979 V 57.851404 h -3.09118 V 76.707801 H 131.83876 V 31.242054 h 12.16053 v 16.100741 h 3.0605 V 31.242054 Z"
         id="path40" /><path
         style="font-size:58.3743px;font-family:Impact;-inkscape-font-specification:'Impact, Normal';letter-spacing:-1.85208px;opacity:1;fill:#bebbcf;fill-opacity:1;stroke:#0a3d90;stroke-width:0.6;stroke-opacity:1"
         d="m 126.73131,52.101538 h -11.9998 v -8.306413 c 0,-2.337252 -0.13301,-3.328053 -0.39904,-3.898114 -0.24703,-0.589063 -0.80759,-0.883595 -1.68168,-0.883595 -0.98811,0 -1.61517,0.351538 -1.8812,1.054613 -0.26603,0.703076 -0.39905,1.760384 -0.39905,4.097636 v 21.434313 c 0,2.242242 0.13302,3.336151 0.39905,4.020225 0.26603,0.684073 0.86459,1.02611 1.79569,1.02611 0.8931,0 1.47266,-0.342037 1.73869,-1.02611 0.28503,-0.684074 0.42754,-1.920498 0.42754,-4.447771 v -6.037885 h 11.9998 v 2.047454 c 0,4.769515 -0.34204,8.15188 -1.02611,10.147095 -0.66507,1.995215 -2.15673,3.743404 -4.47498,5.244566 -2.29925,1.501162 -5.14006,2.251743 -8.52242,2.251743 -3.51538,0 -6.02217,-0.586217 -8.30242,-1.859354 -2.28025,-1.273137 -3.65198,-3.081179 -4.39306,-5.323421 -0.741085,-2.261244 -1.111625,-5.65311 -1.111625,-10.175598 V 47.985078 c 0,-3.325359 0.114012,-5.814628 0.342036,-7.467806 0.228025,-1.672181 0.810429,-3.087964 1.931549,-4.62713 1.14013,-1.539166 2.36218,-2.793269 4.35739,-3.667363 2.01422,-0.893097 4.23081,-1.482062 6.83409,-1.482062 3.53438,0 6.45119,0.684074 8.75044,2.052221 2.29925,1.368148 3.80992,3.078333 4.53199,5.130554 0.72208,2.033219 1.08312,5.206562 1.08312,9.520027 z"
         transform="scale(1.0149724,0.98524847)"
         id="path39" /><path
         style="font-size:58.3743px;font-family:Impact;-inkscape-font-specification:'Impact, Normal';letter-spacing:-1.85208px;opacity:1;fill:#bebbcf;fill-opacity:1;stroke:#0a3d90;stroke-width:0.6;stroke-opacity:1"
         d="M 96.929236,31.242054 V 76.7078 H 86.318205 L 80.484867,57.056294 V 76.7078 H 70.301565 V 31.242054 h 10.183302 l 6.248664,19.513107 V 31.242054 Z"
         id="path38" /><path
         style="font-size:58.3743px;font-family:Impact;-inkscape-font-specification:'Impact, Normal';letter-spacing:-1.85208px;opacity:1;fill:#bebbcf;fill-opacity:1;stroke:#0a3d90;stroke-width:0.6;stroke-opacity:1"
         d="m 66.698631,31.242054 v 30.385385 c 0,3.4448 -0.115719,5.869265 -0.347158,7.273395 -0.231439,1.385409 -0.916112,2.817623 -2.054019,4.29664 -1.137907,1.460296 -2.642258,2.57424 -4.513053,3.341831 -1.85151,0.74887 -3.412149,1.123305 -5.938688,1.123305 -2.796551,0 -5.26523,-0.449322 -7.406038,-1.347966 -2.140808,-0.898643 -3.741592,-2.068752 -4.802352,-3.510326 -1.060761,-1.441574 -1.687574,-2.958035 -1.88044,-4.549383 -0.192865,-1.61007 -0.289298,-4.979983 -0.289298,-10.10974 V 31.242054 h 12.121582 v 34.092289 c 0,1.984505 0.106077,3.257583 0.318229,3.819235 0.231439,0.542931 0.684673,0.814396 1.359701,0.814396 0.771463,0 1.26327,-0.299548 1.475422,-0.898643 0.231439,-0.617818 0.347158,-2.059392 0.347158,-4.324723 V 31.242054 Z"
         id="path37" /><path
         style="font-size:58.3743px;font-family:Impact;-inkscape-font-specification:'Impact, Normal';letter-spacing:-1.85208px;display:inline;opacity:1;fill:#bebbcf;fill-opacity:1;stroke:#0a3d90;stroke-width:0.6;stroke-opacity:1"
         d="M 35.242507,31.709822 V 77.8563 H 23.250859 V 58.734362 H 20.327465 V 77.8563 H 8.3276699 V 31.709822 H 20.327465 v 16.372731 h 2.93154 V 31.709822 Z"
         transform="scale(1.0149724,0.98524847)"
         id="text36" /></g></g><style
     type="text/css"
     id="style1">
	.st0{fill:#DD361C;}
</style></svg>
